<svg width="20" height="20" viewBox="0 0 20 20" fill="none" xmlns="http://www.w3.org/2000/svg">
<path fill-rule="evenodd" clip-rule="evenodd" d="M16.0042 14.4527H17.1749C17.4252 14.44 17.6611 14.3316 17.8338 14.15C18.0065 13.9683 18.1028 13.7273 18.1028 13.4767C18.1028 13.226 18.0065 12.9849 17.8338 12.8033C17.6611 12.6216 17.4252 12.5133 17.1749 12.5006H13.437C13.1838 12.5065 12.9433 12.6126 12.7682 12.7955C12.5931 12.9785 12.4977 13.2235 12.5029 13.4767V17.3808C12.4972 17.5071 12.5172 17.6331 12.5616 17.7514C12.606 17.8697 12.6739 17.9778 12.7613 18.0691C12.8486 18.1605 12.9535 18.2332 13.0697 18.2828C13.1859 18.3325 13.311 18.3581 13.4373 18.3581C13.5637 18.3581 13.6888 18.3325 13.805 18.2828C13.9212 18.2332 14.0261 18.1605 14.1134 18.0691C14.2008 17.9778 14.2687 17.8697 14.3131 17.7514C14.3575 17.6331 14.3775 17.5071 14.3718 17.3808V15.5038L18.3093 19.6707C18.3966 19.7611 18.5011 19.8332 18.6165 19.8827C18.732 19.9322 18.8562 19.9582 18.9818 19.9591C19.1075 19.9601 19.232 19.9361 19.3483 19.8883C19.4645 19.8406 19.57 19.7702 19.6587 19.6812C19.7474 19.5922 19.8175 19.4864 19.8648 19.37C19.9122 19.2537 19.9359 19.129 19.9345 19.0034C19.9331 18.8777 19.9067 18.7537 19.8568 18.6384C19.8069 18.5231 19.7345 18.4189 19.6439 18.3319L16.0042 14.4527ZM3.97532 14.4652H2.79276C2.5383 14.4561 2.29728 14.3486 2.12048 14.1654C1.94367 13.9822 1.84486 13.7375 1.84486 13.4829C1.84486 13.2283 1.94367 12.9836 2.12048 12.8003C2.29728 12.6171 2.5383 12.5097 2.79276 12.5006H6.56693C6.69345 12.503 6.81824 12.5304 6.93418 12.5811C7.05012 12.6318 7.15493 12.7048 7.24261 12.7961C7.3303 12.8873 7.39915 12.9949 7.44522 13.1127C7.49129 13.2306 7.51368 13.3564 7.5111 13.4829V17.4183C7.51572 17.5452 7.49472 17.6717 7.44935 17.7903C7.40398 17.9089 7.33518 18.0171 7.24705 18.1085C7.15892 18.1999 7.05327 18.2726 6.93641 18.3222C6.81956 18.3719 6.6939 18.3975 6.56693 18.3975C6.43997 18.3975 6.31431 18.3719 6.19745 18.3222C6.0806 18.2726 5.97494 18.1999 5.88681 18.1085C5.79868 18.0171 5.72988 17.9089 5.68451 17.7903C5.63915 17.6717 5.61814 17.5452 5.62276 17.4183V15.5288L1.64399 19.7271C1.46422 19.9033 1.22213 20.0014 0.970408 20C0.718683 19.9986 0.477687 19.8978 0.299853 19.7197C0.122019 19.5415 0.0217332 19.3004 0.0208236 19.0486C0.019914 18.7969 0.118452 18.5551 0.294994 18.3756L3.97532 14.4652ZM16.0631 5.55565H17.2394C17.4922 5.5647 17.7316 5.67146 17.9073 5.85352C18.083 6.03557 18.1811 6.27868 18.1811 6.53166C18.1811 6.78463 18.083 7.02774 17.9073 7.2098C17.7316 7.39185 17.4922 7.49868 17.2394 7.50774H13.4852C13.2314 7.50248 12.9901 7.39675 12.8141 7.21377C12.6382 7.03079 12.542 6.78546 12.5467 6.53166V2.62748C12.5467 2.37857 12.6456 2.13985 12.8216 1.96385C12.9976 1.78785 13.2363 1.68897 13.4852 1.68897C13.7341 1.68897 13.9728 1.78785 14.1489 1.96385C14.3249 2.13985 14.4238 2.37857 14.4238 2.62748V4.50449L18.3806 0.337582C18.5593 0.161208 18.8003 0.0622472 19.0514 0.0622472C19.3024 0.0622472 19.5434 0.161208 19.7221 0.337582C19.8102 0.425405 19.8801 0.529732 19.9278 0.644612C19.9755 0.759492 20 0.882632 20 1.00702C20 1.1314 19.9755 1.25454 19.9278 1.36942C19.8801 1.4843 19.8102 1.58863 19.7221 1.67645L16.0631 5.55565ZM3.97532 5.54312H2.7865C2.53203 5.55221 2.29103 5.65967 2.11422 5.8429C1.93742 6.02612 1.8386 6.27078 1.8386 6.52539C1.8386 6.78001 1.93742 7.02474 2.11422 7.20796C2.29103 7.39119 2.53203 7.49865 2.7865 7.50774H6.58195C6.70882 7.5057 6.83404 7.47865 6.95044 7.42815C7.06684 7.37766 7.17214 7.30471 7.26031 7.21346C7.34847 7.12222 7.41778 7.01449 7.46425 6.89643C7.51072 6.77836 7.53344 6.65225 7.53112 6.52539V2.58998C7.53438 2.46333 7.51224 2.33729 7.46602 2.21933C7.4198 2.10137 7.35043 1.99386 7.262 1.90313C7.17356 1.8124 7.06786 1.74027 6.95112 1.69104C6.83438 1.6418 6.70896 1.61642 6.58227 1.61642C6.45557 1.61642 6.33015 1.6418 6.21341 1.69104C6.09667 1.74027 5.99097 1.8124 5.90254 1.90313C5.8141 1.99386 5.74473 2.10137 5.69851 2.21933C5.65229 2.33729 5.63015 2.46333 5.6334 2.58998V4.47952L1.6346 0.281216C1.54586 0.192233 1.44046 0.12165 1.32442 0.073398C1.20838 0.025146 1.08397 0.000175217 0.958302 9.20776e-07C0.83263 -0.000173376 0.708154 0.0243988 0.591982 0.0723288C0.475809 0.120259 0.370213 0.190646 0.281226 0.279383C0.192239 0.368121 0.121607 0.47351 0.0733529 0.589545C0.0250991 0.705581 0.000175223 0.829947 9.20454e-07 0.955614C-0.000173382 1.08128 0.0244092 1.20574 0.0723408 1.32191C0.120272 1.43808 0.190615 1.5437 0.279355 1.63269L3.97532 5.54312Z" fill="white"/>
</svg>
