<svg width="20" height="20" viewBox="0 0 20 20" fill="none" xmlns="http://www.w3.org/2000/svg">
<path fill-rule="evenodd" clip-rule="evenodd" d="M3.49576 1.94878H4.66424C4.91659 1.93974 5.15559 1.83316 5.33092 1.65142C5.50625 1.46967 5.60423 1.22698 5.60423 0.974427C5.60423 0.721879 5.50625 0.479183 5.33092 0.297437C5.15559 0.115691 4.91659 0.00903833 4.66424 0H0.93335C0.680627 0.00589941 0.440551 0.111807 0.265765 0.294463C0.0909785 0.477119 -0.00425737 0.721653 0.000936744 0.974427V4.87198C-0.00471199 4.998 0.015231 5.12383 0.0595571 5.24193C0.103883 5.36003 0.171674 5.46794 0.258842 5.55911C0.346009 5.65029 0.450742 5.72287 0.566724 5.77245C0.682705 5.82203 0.807529 5.84755 0.93366 5.84755C1.05979 5.84755 1.18461 5.82203 1.3006 5.77245C1.41658 5.72287 1.52131 5.65029 1.60848 5.55911C1.69565 5.46794 1.76344 5.36003 1.80777 5.24193C1.85209 5.12383 1.87203 4.998 1.86638 4.87198V2.99815L5.7965 7.158C5.88425 7.24552 5.98838 7.31491 6.10295 7.36218C6.21751 7.40946 6.34026 7.43373 6.46419 7.43355C6.58812 7.43338 6.7108 7.40879 6.82523 7.36119C6.93966 7.3136 7.04359 7.24393 7.1311 7.15617C7.21861 7.0684 7.28798 6.96424 7.33524 6.84966C7.38251 6.73508 7.40674 6.61235 7.40657 6.4884C7.4064 6.36446 7.38181 6.24175 7.33423 6.1273C7.28664 6.01286 7.21698 5.90892 7.12923 5.8214L3.49576 1.94878ZM16.4702 1.96128H15.2899C15.0359 1.95221 14.7953 1.84493 14.6188 1.66202C14.4424 1.4791 14.3437 1.23486 14.3437 0.980679C14.3437 0.726494 14.4424 0.482181 14.6188 0.299267C14.7953 0.116352 15.0359 0.00906794 15.2899 0H19.057C19.1832 0.00243628 19.3078 0.0297507 19.4235 0.0803635C19.5393 0.130976 19.6439 0.203923 19.7314 0.294997C19.8189 0.386071 19.8876 0.493462 19.9336 0.611114C19.9796 0.728765 20.0019 0.854385 19.9994 0.980679V4.90942C20.004 5.03608 19.983 5.16236 19.9377 5.28074C19.8925 5.39912 19.8238 5.50722 19.7358 5.59846C19.6478 5.6897 19.5424 5.76223 19.4258 5.81179C19.3091 5.86136 19.1837 5.8869 19.057 5.8869C18.9302 5.8869 18.8048 5.86136 18.6882 5.81179C18.5715 5.76223 18.4661 5.6897 18.3781 5.59846C18.2902 5.50722 18.2215 5.39912 18.1762 5.28074C18.1309 5.16236 18.11 5.03608 18.1146 4.90942V3.02309L14.1432 7.21427C14.055 7.30401 13.9498 7.37539 13.8338 7.42425C13.7177 7.47311 13.5932 7.49844 13.4673 7.49889C13.3414 7.49935 13.2167 7.47486 13.1004 7.42684C12.984 7.37882 12.8783 7.30825 12.7894 7.21915C12.7004 7.13004 12.63 7.02415 12.5822 6.90768C12.5344 6.79121 12.5102 6.66645 12.5109 6.54056C12.5116 6.41466 12.5372 6.29013 12.5862 6.17419C12.6353 6.05825 12.7069 5.95322 12.7968 5.86509L16.4702 1.96128ZM3.49576 18.0512H4.66424C4.91659 18.0603 5.15559 18.1668 5.33092 18.3486C5.50625 18.5303 5.60423 18.773 5.60423 19.0256C5.60423 19.2781 5.50625 19.5208 5.33092 19.7026C5.15559 19.8843 4.91659 19.991 4.66424 20H0.93335C0.680627 19.9941 0.440551 19.8882 0.265765 19.7055C0.0909785 19.5229 -0.00425737 19.2783 0.000936744 19.0256V15.128C-0.00471199 15.002 0.015231 14.8762 0.0595571 14.7581C0.103883 14.64 0.171674 14.5321 0.258842 14.4409C0.346009 14.3497 0.450742 14.2771 0.566724 14.2275C0.682705 14.178 0.807529 14.1524 0.93366 14.1524C1.05979 14.1524 1.18461 14.178 1.3006 14.2275C1.41658 14.2771 1.52131 14.3497 1.60848 14.4409C1.69565 14.5321 1.76344 14.64 1.80777 14.7581C1.85209 14.8762 1.87203 15.002 1.86638 15.128V17.0018L5.7965 12.842C5.88425 12.7545 5.98838 12.6851 6.10295 12.6378C6.21751 12.5905 6.34026 12.5663 6.46419 12.5664C6.58812 12.5666 6.7108 12.5912 6.82523 12.6388C6.93966 12.6864 7.04359 12.7561 7.1311 12.8438C7.21861 12.9316 7.28798 13.0358 7.33524 13.1503C7.38251 13.2649 7.40674 13.3877 7.40657 13.5116C7.4064 13.6355 7.38181 13.7583 7.33423 13.8727C7.28664 13.9871 7.21698 14.0911 7.12923 14.1786L3.49576 18.0512ZM16.4702 18.0387H15.2899C15.0359 18.0478 14.7953 18.1551 14.6188 18.338C14.4424 18.5209 14.3437 18.7651 14.3437 19.0193C14.3437 19.2735 14.4424 19.5178 14.6188 19.7007C14.7953 19.8836 15.0359 19.9909 15.2899 20H19.057C19.1832 19.9976 19.3078 19.9702 19.4235 19.9196C19.5393 19.869 19.6439 19.7961 19.7314 19.705C19.8189 19.6139 19.8876 19.5065 19.9336 19.3889C19.9796 19.2712 20.0019 19.1456 19.9994 19.0193V15.0906C20.004 14.9639 19.983 14.8376 19.9377 14.7193C19.8925 14.6009 19.8238 14.4928 19.7358 14.4015C19.6478 14.3103 19.5424 14.2378 19.4258 14.1882C19.3091 14.1386 19.1837 14.1131 19.057 14.1131C18.9302 14.1131 18.8048 14.1386 18.6882 14.1882C18.5715 14.2378 18.4661 14.3103 18.3781 14.4015C18.2902 14.4928 18.2215 14.6009 18.1762 14.7193C18.1309 14.8376 18.11 14.9639 18.1146 15.0906V16.9769L14.1432 12.7857C14.055 12.696 13.9498 12.6246 13.8338 12.5758C13.7177 12.5269 13.5932 12.5016 13.4673 12.5011C13.3414 12.5007 13.2167 12.5251 13.1004 12.5732C12.984 12.6212 12.8783 12.6917 12.7894 12.7809C12.7004 12.87 12.63 12.9759 12.5822 13.0923C12.5344 13.2088 12.5102 13.3335 12.5109 13.4594C12.5116 13.5853 12.5372 13.7099 12.5862 13.8258C12.6353 13.9417 12.7069 14.0468 12.7968 14.1349L16.4702 18.0387Z" fill="white"/>
</svg>
