<svg width="24" height="24" viewBox="0 0 24 24" fill="none" xmlns="http://www.w3.org/2000/svg">
<path d="M4.40576 3.35996L8.16032 0.959961V3.15164L12.0003 0.959961V5.75996L8.16032 3.56828V5.75996L4.40576 3.35996Z" stroke="white" stroke-miterlimit="10"/>
<path d="M9.1202 16.8001V11.5201H7.2002V10.5601C8.1602 10.5601 9.1202 10.2001 9.1202 9.12012H10.0802V16.8001H9.1682H9.1202ZM13.6802 16.8001C12.2738 16.8001 11.0402 15.6784 11.0402 14.4001H12.0002C12.0002 15.0664 12.7341 15.8401 13.6802 15.8401C14.6066 15.8401 15.3602 15.0865 15.3602 14.1601C15.3602 13.2337 14.6066 12.4801 13.6802 12.4801C13.2031 12.4801 12.7466 12.6846 12.4279 13.0403L11.5956 12.6486L12.1202 9.12012H15.8402V10.0801H12.9535L12.7087 11.7059C13.0149 11.5844 13.3442 11.5201 13.6802 11.5201C15.136 11.5201 16.3202 12.7048 16.3202 14.1601C16.3202 15.6155 15.136 16.8001 13.6802 16.8001Z" fill="white"/>
<path d="M11.9999 3.35986C17.302 3.35986 21.5999 7.65778 21.5999 12.9599C21.5999 18.2619 17.302 22.5599 11.9999 22.5599C6.69782 22.5599 2.3999 18.2619 2.3999 12.9599" stroke="white" stroke-width="1.4" stroke-miterlimit="10" stroke-linecap="round"/>
</svg>
