<svg width="24" height="24" viewBox="0 0 24 24" fill="none" xmlns="http://www.w3.org/2000/svg">
<path d="M15.84 5.75996V3.56828L12 5.75996V0.959961L15.84 3.15164V0.959961L19.5946 3.35996L15.84 5.75996Z" stroke="white" stroke-miterlimit="10"/>
<path d="M9.1202 17.2801V12.0001H7.2002V11.0401C8.1602 11.0401 9.1202 10.6801 9.1202 9.6001H10.0802V17.2801H9.1682H9.1202ZM13.6802 17.2801C12.2738 17.2801 11.0402 16.1583 11.0402 14.8801H12.0002C12.0002 15.5463 12.7341 16.3201 13.6802 16.3201C14.6066 16.3201 15.3602 15.5665 15.3602 14.6401C15.3602 13.7137 14.6066 12.9601 13.6802 12.9601C13.2031 12.9601 12.7466 13.1646 12.4279 13.5203L11.5956 13.1286L12.1202 9.6001H15.8402V10.5601H12.9535L12.7087 12.1859C13.0149 12.0644 13.3442 12.0001 13.6802 12.0001C15.136 12.0001 16.3202 13.1847 16.3202 14.6401C16.3202 16.0955 15.136 17.2801 13.6802 17.2801Z" fill="white"/>
<path d="M11.9999 3.35986C6.69782 3.35986 2.3999 7.65778 2.3999 12.9599C2.3999 18.2619 6.69782 22.5599 11.9999 22.5599C17.302 22.5599 21.5999 18.2619 21.5999 12.9599" stroke="white" stroke-width="1.4" stroke-miterlimit="10" stroke-linecap="round"/>
</svg>
