<svg width="22" height="22" viewBox="0 0 22 22" fill="none" xmlns="http://www.w3.org/2000/svg">
<path fill-rule="evenodd" clip-rule="evenodd" d="M19.8733 17.6798L17.6562 19.897L14.8183 19.1065L14.0067 19.4412L12.5498 21.999H9.41527L7.96644 19.4325L7.15567 19.0925L4.31809 19.8733L2.10197 17.6572L2.89252 14.8193L2.55774 14.0076L0 12.5496V9.41514L2.56758 7.96634L2.90748 7.15568L2.1267 4.31809L4.34198 2.10281L7.17985 2.89446L7.99072 2.56004L9.44544 0H12.5808L14.0296 2.56758L14.8403 2.90748L17.6774 2.12683L19.8961 4.34235L19.1055 7.18067L19.44 7.99173L22 9.44645V12.5818L19.4327 14.0305L19.0925 14.843L19.8733 17.6798ZM16.9809 14.7078L17.8527 12.6256L20 11.4139V10.6103L17.8534 9.39056L16.9941 7.30696L17.6558 4.93166L17.087 4.36362L14.7044 5.0192L12.6245 4.1471L11.4129 2H10.6093L9.38954 4.14655L7.30576 5.00595L4.93001 4.34321L4.36375 4.90947L5.01919 7.29155L4.1471 9.3715L2 10.583V11.3876L4.14482 12.6101L5.00385 14.693L4.34203 17.0688L4.90946 17.6362L7.29155 16.9808L9.3714 17.8529L10.5829 19.999H11.3873L12.609 17.8542L14.692 16.9951L17.0678 17.657L17.6362 17.0886L16.9809 14.7078ZM11 15C8.79086 15 7 13.2091 7 11C7 8.79086 8.79086 7 11 7C13.2091 7 15 8.79086 15 11C15 13.2091 13.2091 15 11 15ZM11 13C12.1046 13 13 12.1046 13 11C13 9.89543 12.1046 9 11 9C9.89543 9 9 9.89543 9 11C9 12.1046 9.89543 13 11 13Z" fill="white"/>
</svg>
